<svg width="57" height="53" viewBox="0 0 57 53" fill="none" xmlns="http://www.w3.org/2000/svg">
<g clip-path="url(#clip0_56_567)">
<path d="M0.762743 34.0496C0.762743 28.3303 0.762743 22.5956 0.762743 16.8764C0.762743 15.8069 1.02763 15.5435 2.10275 15.5435C3.7544 15.5435 5.40604 15.5435 7.05768 15.5435C7.89908 15.5435 8.22629 15.8689 8.22629 16.7059C8.22629 28.3148 8.22629 39.9238 8.22629 51.5172C8.22629 52.3542 7.89908 52.6797 7.05768 52.6797C5.35929 52.6797 3.67649 52.6797 1.9781 52.6797C1.05879 52.6797 0.747162 52.3697 0.747162 51.4552C0.762743 45.6585 0.762743 39.8463 0.762743 34.0496ZM6.32535 50.7888C6.32535 39.6448 6.32535 28.5318 6.32535 17.4344C5.07883 17.4344 3.86347 17.4344 2.66369 17.4344C2.66369 28.5783 2.66369 39.6603 2.66369 50.7888C3.87905 50.7888 5.07883 50.7888 6.32535 50.7888Z" fill="#DAA666"/>
<path d="M36.3665 28.5319C35.2135 28.5319 34.0761 28.5164 32.923 28.5474C32.3465 28.5629 31.9414 28.3769 31.5363 27.9739C27.2202 23.6496 22.8729 19.3564 18.5569 15.0321C18.2452 14.7221 17.9336 14.5826 17.4973 14.5826C15.4406 14.5981 13.3838 14.6136 11.3115 14.5671C10.9375 14.5516 10.4545 14.3811 10.1896 14.1176C7.18234 11.1882 4.22185 8.21239 1.2302 5.25203C0.840663 4.86455 0.591359 4.46157 0.918571 3.9191C1.24578 3.36113 1.93137 3.31463 2.46114 3.8416C3.34929 4.70956 4.22185 5.59302 5.11 6.46098C7.07327 8.42938 9.05213 10.3823 11.0154 12.3662C11.2959 12.6452 11.5763 12.7537 11.9815 12.7537C14.0226 12.7382 16.0638 12.7537 18.105 12.7382C18.6504 12.7382 19.0555 12.9087 19.445 13.2961C23.7767 17.6204 28.1239 21.9447 32.4556 26.269C32.7516 26.5635 33.0477 26.6875 33.4684 26.6875C35.8212 26.672 38.174 26.6875 40.5268 26.672C41.0254 26.672 41.415 26.8115 41.7733 27.1525C46.5101 31.5853 51.2625 36.018 56.0149 40.4508C56.1551 40.5903 56.3109 40.7143 56.4356 40.8538C56.8251 41.2723 56.8407 41.7838 56.4823 42.1558C56.1395 42.5277 55.6253 42.5587 55.1735 42.2177C55.0644 42.1403 54.9709 42.0318 54.8774 41.9388C50.2341 37.6145 45.6064 33.2902 40.9787 28.9504C40.667 28.6559 40.3554 28.5009 39.9036 28.5164C38.7349 28.5629 37.5507 28.5319 36.3665 28.5319Z" fill="#DAA666"/>
<path d="M53.0232 17.3879C53.9425 17.3879 54.7995 17.3879 55.6565 17.3879C56.1239 17.3879 56.4979 17.5274 56.6849 17.9924C56.8718 18.4263 56.6849 18.7828 56.3732 19.0928C53.9581 21.4952 51.543 23.9131 49.1122 26.3155C48.5825 26.8424 48.115 26.8424 47.5852 26.3155C45.1545 23.9131 42.7394 21.5107 40.3242 19.0928C40.0126 18.7828 39.8412 18.4418 40.0126 17.9924C40.1996 17.5429 40.558 17.3879 41.041 17.3879C41.898 17.4034 42.7394 17.3879 43.6743 17.3879C43.6743 17.1399 43.6743 16.9074 43.6743 16.6904C43.6743 11.7927 43.6743 6.91039 43.6743 2.01262C43.6743 0.943175 43.9392 0.679688 45.0143 0.679688C47.2424 0.679688 49.4862 0.679688 51.7143 0.679688C52.7116 0.679688 53.0076 0.974173 53.0076 1.95063C53.0076 6.84839 53.0076 11.7307 53.0076 16.6284C53.0232 16.8609 53.0232 17.0779 53.0232 17.3879ZM45.5596 2.5706C45.5596 2.81858 45.5596 3.03557 45.5596 3.23706C45.5596 8.16583 45.5596 13.0946 45.5596 18.0389C45.5596 18.9533 45.248 19.2478 44.3287 19.2633C43.9703 19.2633 43.6275 19.2633 43.3315 19.2633C45.0455 20.9682 46.7283 22.6576 48.3176 24.2386C49.9692 22.5956 51.652 20.9062 53.2881 19.2633C53.1011 19.2633 52.8206 19.2633 52.5246 19.2633C51.4027 19.2633 51.1534 18.9998 51.1534 17.8994C51.1534 13.0326 51.1534 8.15033 51.1534 3.28356C51.1534 3.05107 51.1534 2.83408 51.1534 2.5706C49.2836 2.5706 47.4606 2.5706 45.5596 2.5706Z" fill="#DAA666"/>
<path d="M17.5596 37.8159C17.5596 42.3262 17.5596 46.8365 17.5596 51.3313C17.5596 52.4007 17.2947 52.6642 16.2196 52.6642C14.568 52.6642 12.9163 52.6642 11.2647 52.6642C10.4233 52.6642 10.0961 52.3387 10.0961 51.5018C10.0961 42.3727 10.0961 33.2437 10.0961 24.1146C10.0961 23.2776 10.4233 22.9521 11.2647 22.9521C12.9787 22.9521 14.6926 22.9521 16.391 22.9521C17.2324 22.9521 17.5596 23.2776 17.5596 24.1146C17.5596 28.6869 17.5596 33.2592 17.5596 37.8159ZM11.997 24.8431C11.997 33.5226 11.997 42.1557 11.997 50.7733C13.2435 50.7733 14.4589 50.7733 15.6587 50.7733C15.6587 42.1092 15.6587 33.4916 15.6587 24.8431C14.4433 24.8431 13.2435 24.8431 11.997 24.8431Z" fill="#DAA666"/>
<path d="M26.893 41.0707C26.893 44.5116 26.893 47.9524 26.893 51.3932C26.893 52.3852 26.5969 52.6642 25.6153 52.6642C23.9481 52.6642 22.2653 52.6642 20.598 52.6642C19.7566 52.6642 19.4294 52.3387 19.4294 51.5017C19.4294 44.5426 19.4294 37.5679 19.4294 30.6087C19.4294 29.7718 19.7566 29.4463 20.598 29.4463C22.312 29.4463 24.026 29.4463 25.7244 29.4463C26.5658 29.4463 26.893 29.7718 26.893 30.6087C26.893 34.1116 26.893 37.5834 26.893 41.0707ZM24.992 50.7888C24.992 44.2791 24.992 37.8159 24.992 31.3682C23.7455 31.3682 22.5301 31.3682 21.3304 31.3682C21.3304 37.8624 21.3304 44.3101 21.3304 50.7888C22.5457 50.7888 23.7455 50.7888 24.992 50.7888Z" fill="#DAA666"/>
<path d="M36.2263 44.7905C36.2263 47.0224 36.2263 49.2388 36.2263 51.4707C36.2263 52.3851 35.9147 52.6951 34.9953 52.6951C33.297 52.6951 31.6142 52.6951 29.9158 52.6951C29.0744 52.6951 28.7472 52.3696 28.7472 51.5327C28.7472 47.0379 28.7472 42.5586 28.7472 38.0638C28.7472 37.2269 29.0744 36.9014 29.9158 36.9014C31.6297 36.9014 33.3437 36.9014 35.0421 36.9014C35.8835 36.9014 36.2107 37.2269 36.2107 38.0638C36.2263 40.2957 36.2263 42.5431 36.2263 44.7905ZM34.3253 50.7887C34.3253 46.7589 34.3253 42.7756 34.3253 38.7923C33.0788 38.7923 31.8635 38.7923 30.6637 38.7923C30.6637 42.8066 30.6637 46.7899 30.6637 50.7887C31.879 50.7887 33.0788 50.7887 34.3253 50.7887Z" fill="#DAA666"/>
<path d="M45.5596 46.6972C45.5596 48.3091 45.5596 49.9055 45.5596 51.5174C45.5596 52.3544 45.2324 52.6799 44.391 52.6799C42.677 52.6799 40.9631 52.6799 39.2647 52.6799C38.4233 52.6799 38.0961 52.3544 38.0961 51.5174C38.0961 48.2626 38.0961 45.0232 38.0961 41.7684C38.0961 40.9314 38.4233 40.606 39.2647 40.606C40.9787 40.606 42.6926 40.606 44.391 40.606C45.2324 40.606 45.5596 40.9314 45.5596 41.7684C45.5596 43.4113 45.5596 45.0542 45.5596 46.6972ZM43.6743 42.5124C42.4122 42.5124 41.1968 42.5124 40.0126 42.5124C40.0126 45.3022 40.0126 48.0611 40.0126 50.789C41.2591 50.789 42.4589 50.789 43.6743 50.789C43.6743 48.0146 43.6743 45.2867 43.6743 42.5124Z" fill="#DAA666"/>
<path d="M51.1222 52.6796C50.2652 52.6796 49.4083 52.6796 48.5513 52.6796C47.7722 52.6796 47.4294 52.3386 47.4294 51.5946C47.4138 49.8277 47.4138 48.0763 47.4294 46.3094C47.4294 45.5964 47.7878 45.2554 48.5201 45.2554C50.2964 45.2554 52.0571 45.2399 53.8334 45.2554C54.5502 45.2554 54.8929 45.6119 54.8929 46.3404C54.9085 48.1073 54.9085 49.8587 54.8929 51.6256C54.8929 52.3386 54.5346 52.6796 53.8022 52.6796C52.9141 52.6796 52.0104 52.6796 51.1222 52.6796ZM52.992 47.1463C51.7455 47.1463 50.5301 47.1463 49.3304 47.1463C49.3304 48.3863 49.3304 49.5952 49.3304 50.7887C50.5769 50.7887 51.7611 50.7887 52.992 50.7887C52.992 49.5797 52.992 48.3863 52.992 47.1463Z" fill="#DAA666"/>
</g>
<defs>
<clipPath id="clip0_56_567">
<rect width="56" height="52" fill="white" transform="translate(0.762756 0.679688)"/>
</clipPath>
</defs>
</svg>
