<svg width="64" height="64" viewBox="0 0 64 64" fill="none" xmlns="http://www.w3.org/2000/svg">
<path d="M48.9908 39.9858L35.0908 25.9858H24.0908L16.0908 17.9858L5.09082 28.9858L10.0908 33.9858C10.4908 35.4858 11.8908 37.0858 12.7908 37.6858L26.2908 51.3858L27.9908 53.0858C30.5908 55.6858 32.9908 53.7858 34.1908 51.5858C36.5908 52.7858 39.1908 51.4858 40.1908 49.5858C43.1908 51.0858 45.7908 47.9858 45.5908 46.3858C48.7908 46.3858 51.1908 42.9858 48.9908 39.9858Z" fill="#1D1F22" stroke="#DAA666" stroke-width="2" stroke-miterlimit="10"/>
<path d="M46.9908 18.9858C46.9908 18.9858 42.8908 22.8858 41.9908 22.9858C40.7908 23.1858 35.3907 20.5858 34.2907 20.3858C33.1907 20.0858 22.2908 23.5858 21.4908 24.8858C20.6908 26.1858 23.8908 29.2858 26.9908 28.8858C30.0908 28.4858 34.6908 26.8858 36.0908 28.1858C38.2908 30.3858 44.5908 37.0858 47.5908 39.6858C50.0908 41.8858 54.3908 34.2858 55.4908 33.0858C55.4908 33.0858 57.4908 31.6858 58.8908 30.5858L46.9908 18.9858Z" fill="#1D1F22" stroke="#DAA666" stroke-width="2" stroke-miterlimit="10"/>
<path d="M34.1908 51.6858L29.4908 46.9858" stroke="#DAA666" stroke-width="2" stroke-miterlimit="10"/>
<path d="M40.0908 49.6857L33.2908 42.8857" stroke="#DAA666" stroke-width="2" stroke-miterlimit="10"/>
<path d="M45.4908 46.5859L37.5908 38.5859" stroke="#DAA666" stroke-width="2" stroke-miterlimit="10"/>
<path d="M48.0211 14.982L43.0007 20.0024L57.0013 34.003L62.0217 28.9826L48.0211 14.982Z" fill="#1D1F22" stroke="#DAA666" stroke-width="2" stroke-miterlimit="10"/>
<path d="M47.9908 19.9858L49.9908 21.9858" stroke="#DAA666" stroke-width="2" stroke-miterlimit="10"/>
<path d="M16.0016 15.0521L2.00098 29.0527L7.02139 34.0731L21.022 20.0725L16.0016 15.0521Z" fill="#1D1F22" stroke="#DAA666" stroke-width="2" stroke-miterlimit="10"/>
<path d="M15.9908 19.9858L13.9908 21.9858" stroke="#DAA666" stroke-width="2" stroke-miterlimit="10"/>
<path d="M24.9908 62.0547C12.7908 59.2547 4.09077 49.5547 1.79077 38.0547" stroke="#DAA666" stroke-width="2" stroke-miterlimit="10"/>
<path d="M38.6908 62.0548C49.6908 59.4548 58.8908 50.9548 61.5908 39.1548" stroke="#DAA666" stroke-width="2" stroke-miterlimit="10"/>
<path d="M54.1908 11.3548C50.1908 7.05481 44.8908 3.85481 38.6908 2.45481C27.6908 -0.0451921 16.6908 3.65481 9.49084 11.3548" stroke="#DAA666" stroke-width="2" stroke-miterlimit="10"/>
<path d="M20.5908 51.7856C21.3908 52.5856 22.5909 52.5856 23.3909 51.7856L25.4909 49.6856C26.2909 48.8856 26.0908 47.4856 25.0908 46.4856C24.0908 45.4856 22.7909 45.2856 21.8909 46.0856C22.6909 45.2856 22.4909 43.8856 21.4909 42.8856C20.4909 41.8856 19.1908 41.6856 18.2908 42.4856C19.0908 41.6856 18.8909 40.2856 17.8909 39.2856C16.8909 38.2856 15.5908 38.0856 14.6908 38.8856C15.4908 38.0856 15.2908 36.6856 14.2908 35.6856C13.2908 34.6856 11.9908 34.4856 11.0908 35.2856L8.99087 37.3856C8.19087 38.1856 8.19087 39.3856 8.99087 40.1856L20.5908 51.7856Z" fill="#1D1F22" stroke="#DAA666" stroke-width="2" stroke-miterlimit="10"/>
<path d="M25.9908 15.9858L23.9908 13.9858" stroke="#DAA666" stroke-width="2" stroke-miterlimit="10"/>
<path d="M29.9908 13.9858L28.9908 10.9858" stroke="#DAA666" stroke-width="2" stroke-miterlimit="10"/>
<path d="M33.9908 13.9858L34.9908 10.9858" stroke="#DAA666" stroke-width="2" stroke-miterlimit="10"/>
<path d="M37.9908 15.9858L39.9908 13.9858" stroke="#DAA666" stroke-width="2" stroke-miterlimit="10"/>
</svg>
