<svg width="67" height="69" viewBox="0 0 67 69" fill="none" xmlns="http://www.w3.org/2000/svg">
<g clip-path="url(#clip0_56_594)">
<mask id="path-1-outside-1_56_594" maskUnits="userSpaceOnUse" x="10.0628" y="15.0918" width="44" height="43" fill="black">
<rect fill="white" x="10.0628" y="15.0918" width="44" height="43"/>
<path d="M47.289 27.4892C47.9513 29.177 48.5378 30.7148 49.1623 32.2526C49.238 32.4401 49.4839 32.6277 49.6732 32.6652C50.2787 32.7777 50.8842 32.7964 51.4897 32.8902C52.3979 33.0402 52.8899 33.5466 52.9088 34.4467C52.9467 36.022 52.9467 37.5786 52.9088 39.1539C52.8899 40.054 52.379 40.5604 51.4707 40.7104C50.7328 40.8229 49.8056 40.6916 49.2947 41.1042C48.8217 41.4793 48.8217 42.417 48.5378 43.0921C48.1216 44.0673 47.6485 45.0049 47.1755 46.0176C47.5728 46.5052 48.0269 47.0303 48.4622 47.5742C49.1055 48.3806 49.0677 49.1682 48.3486 49.8996C47.3079 50.9498 46.2672 52 45.1886 53.0314C44.4318 53.7628 43.5803 53.8753 42.8802 53.1252C41.7638 51.9062 40.742 51.8875 39.3796 52.7501C38.5659 53.2565 37.5252 53.4252 36.617 53.8003C36.3899 53.8941 36.1628 54.1754 36.125 54.4004C36.0115 54.9443 36.0115 55.5069 35.9358 56.0695C35.8222 56.9509 35.2357 57.5135 34.3274 57.5322C32.7758 57.551 31.2053 57.551 29.6537 57.5322C28.7076 57.5135 28.121 56.9509 28.0074 56.032C27.9318 55.3381 28.0642 54.4754 27.7047 54.0066C27.3641 53.5565 26.4558 53.5565 25.8314 53.3127C24.9988 52.9752 24.1663 52.6376 23.4094 52.1875C22.8796 51.8687 22.539 51.925 22.1227 52.3375C21.7632 52.6751 21.3658 52.9752 20.9685 53.2752C20.2683 53.7816 19.5304 53.7628 18.906 53.1814C17.7517 52.075 16.6164 50.9498 15.5 49.8058C14.8945 49.187 14.9134 48.3993 15.4432 47.7054C15.6703 47.4054 15.9163 47.1241 16.1623 46.824C16.3893 46.5615 16.5975 46.2802 16.711 46.1489C16.0676 44.4798 15.4621 42.9045 14.8377 41.348C14.762 41.1792 14.5539 40.9917 14.3647 40.9729C13.7592 40.8604 13.1537 40.8417 12.5482 40.7479C11.6399 40.6166 11.1101 40.1103 11.0912 39.2101C11.0533 37.6161 11.0533 36.022 11.0912 34.4467C11.1101 33.5841 11.621 33.0777 12.4914 32.9465C13.0969 32.8527 13.7213 32.8339 14.3079 32.7214C14.516 32.6839 14.762 32.4589 14.8566 32.2526C15.4621 30.8648 16.0676 29.4771 16.6164 28.0518C16.6921 27.8455 16.6732 27.5267 16.5407 27.3392C16.219 26.8516 15.8027 26.439 15.4432 25.9702C14.8945 25.2575 14.9323 24.4511 15.5568 23.8135C16.6353 22.7071 17.7328 21.6194 18.8681 20.5317C19.5304 19.8941 20.2873 19.8753 21.0441 20.4379C21.6307 20.8692 22.1605 21.6006 22.785 21.6756C23.3716 21.7507 24.0149 21.0943 24.6772 20.8317C25.5287 20.4942 26.3991 20.1754 27.2695 19.9128C27.7047 19.7815 27.875 19.594 27.8939 19.1439C27.8939 18.6376 27.9696 18.1125 28.0264 17.6061C28.1399 16.6685 28.7265 16.1246 29.6726 16.1059C31.2242 16.0871 32.7947 16.0871 34.3463 16.1059C35.2546 16.1246 35.8412 16.6685 35.9547 17.5686C36.0493 18.2625 35.8979 19.1439 36.2574 19.6128C36.617 20.0816 37.5252 20.1003 38.1686 20.3629C39.0011 20.7005 39.8337 21.038 40.5906 21.4881C41.1015 21.7882 41.4232 21.7319 41.8205 21.3381C42.18 21.0005 42.5774 20.7005 42.9748 20.4004C43.6938 19.8753 44.4507 19.8753 45.094 20.4942C46.2294 21.5819 47.3457 22.6883 48.4432 23.8135C49.0487 24.4324 49.0677 25.22 48.5568 25.9139C48.3297 26.214 48.0837 26.4953 47.8566 26.7953C47.6485 27.0579 47.4214 27.3204 47.289 27.4892ZM43.9209 22.1445C43.3154 22.6321 42.672 23.1384 42.0287 23.6635C41.6124 24.0011 41.1772 24.0573 40.723 23.7573C39.039 22.6508 37.1846 21.9007 35.2167 21.4881C34.6112 21.3568 34.3463 21.0005 34.2896 20.4192C34.2328 19.819 34.1571 19.2002 34.1193 18.6001C34.1003 18.2062 33.9868 18.0187 33.5327 18.0187C32.5109 18.0562 31.508 18.0562 30.4862 18.0187C30.0321 18 29.9186 18.2062 29.8996 18.6001C29.8618 19.1814 29.7672 19.7628 29.7483 20.3441C29.7104 21.0005 29.4077 21.3756 28.7454 21.5069C26.8343 21.9007 25.0556 22.6321 23.4283 23.701C22.8607 24.0573 22.3876 24.0198 21.8956 23.5885C21.309 23.0821 20.6846 22.6133 20.1926 22.2195C19.2087 23.1947 18.2626 24.1323 17.2976 25.0888C17.7328 25.6139 18.2058 26.2327 18.7167 26.8141C19.133 27.2829 19.1519 27.7705 18.8113 28.2769C17.7139 29.9084 16.9948 31.7087 16.5785 33.6216C16.465 34.1654 16.1433 34.4842 15.5757 34.5405C14.762 34.6155 13.9484 34.728 13.1158 34.8031C13.1158 36.1721 13.1158 37.4848 13.1158 38.8163C13.9673 38.9101 14.762 39.0038 15.5568 39.0788C16.1623 39.1351 16.465 39.4539 16.5975 40.0353C16.9948 41.9294 17.7328 43.6922 18.8113 45.305C19.1709 45.8488 19.133 46.3364 18.6978 46.8428C18.1869 47.4241 17.7139 48.0242 17.2976 48.5493C18.2815 49.5433 19.2087 50.4809 20.1737 51.4374C20.7225 51.006 21.328 50.5372 21.8767 50.0496C22.3876 49.5995 22.8796 49.562 23.4662 49.9371C25.0745 50.9873 26.8343 51.7187 28.7265 52.0937C29.4077 52.225 29.7104 52.6188 29.7672 53.3127C29.805 54.0629 29.9186 54.7942 29.9943 55.5444C31.3756 55.5444 32.6812 55.5444 34.0625 55.5444C34.1382 54.7755 34.2517 54.0441 34.2896 53.294C34.3274 52.6188 34.6491 52.2063 35.3303 52.075C37.2225 51.6999 38.9822 50.9685 40.5906 49.9183C41.1772 49.5245 41.6691 49.5808 42.18 50.0309C42.7666 50.5372 43.3721 51.006 43.8263 51.3624C44.8291 50.3684 45.7563 49.4308 46.7213 48.4743C46.324 47.9867 45.8888 47.4241 45.3968 46.8803C44.9237 46.3552 44.8859 45.8488 45.2832 45.23C46.3429 43.6547 47.043 41.9294 47.4404 40.0728C47.5728 39.4352 47.9134 39.0976 48.5757 39.0413C49.3704 38.9663 50.1462 38.8726 50.9599 38.7975C50.9599 37.4285 50.9599 36.1346 50.9599 34.7843C50.1462 34.6905 49.3515 34.5968 48.5568 34.5405C47.9134 34.4842 47.5917 34.1654 47.4593 33.5466C47.0619 31.6712 46.3429 29.9272 45.2832 28.3331C44.9048 27.7518 44.9237 27.2642 45.3779 26.7391C45.8888 26.1577 46.3618 25.5576 46.8159 25.0138C45.8131 24.0198 44.867 23.1009 43.9209 22.1445Z"/>
</mask>
<path d="M47.289 27.4892C47.9513 29.177 48.5378 30.7148 49.1623 32.2526C49.238 32.4401 49.4839 32.6277 49.6732 32.6652C50.2787 32.7777 50.8842 32.7964 51.4897 32.8902C52.3979 33.0402 52.8899 33.5466 52.9088 34.4467C52.9467 36.022 52.9467 37.5786 52.9088 39.1539C52.8899 40.054 52.379 40.5604 51.4707 40.7104C50.7328 40.8229 49.8056 40.6916 49.2947 41.1042C48.8217 41.4793 48.8217 42.417 48.5378 43.0921C48.1216 44.0673 47.6485 45.0049 47.1755 46.0176C47.5728 46.5052 48.0269 47.0303 48.4622 47.5742C49.1055 48.3806 49.0677 49.1682 48.3486 49.8996C47.3079 50.9498 46.2672 52 45.1886 53.0314C44.4318 53.7628 43.5803 53.8753 42.8802 53.1252C41.7638 51.9062 40.742 51.8875 39.3796 52.7501C38.5659 53.2565 37.5252 53.4252 36.617 53.8003C36.3899 53.8941 36.1628 54.1754 36.125 54.4004C36.0115 54.9443 36.0115 55.5069 35.9358 56.0695C35.8222 56.9509 35.2357 57.5135 34.3274 57.5322C32.7758 57.551 31.2053 57.551 29.6537 57.5322C28.7076 57.5135 28.121 56.9509 28.0074 56.032C27.9318 55.3381 28.0642 54.4754 27.7047 54.0066C27.3641 53.5565 26.4558 53.5565 25.8314 53.3127C24.9988 52.9752 24.1663 52.6376 23.4094 52.1875C22.8796 51.8687 22.539 51.925 22.1227 52.3375C21.7632 52.6751 21.3658 52.9752 20.9685 53.2752C20.2683 53.7816 19.5304 53.7628 18.906 53.1814C17.7517 52.075 16.6164 50.9498 15.5 49.8058C14.8945 49.187 14.9134 48.3993 15.4432 47.7054C15.6703 47.4054 15.9163 47.1241 16.1623 46.824C16.3893 46.5615 16.5975 46.2802 16.711 46.1489C16.0676 44.4798 15.4621 42.9045 14.8377 41.348C14.762 41.1792 14.5539 40.9917 14.3647 40.9729C13.7592 40.8604 13.1537 40.8417 12.5482 40.7479C11.6399 40.6166 11.1101 40.1103 11.0912 39.2101C11.0533 37.6161 11.0533 36.022 11.0912 34.4467C11.1101 33.5841 11.621 33.0777 12.4914 32.9465C13.0969 32.8527 13.7213 32.8339 14.3079 32.7214C14.516 32.6839 14.762 32.4589 14.8566 32.2526C15.4621 30.8648 16.0676 29.4771 16.6164 28.0518C16.6921 27.8455 16.6732 27.5267 16.5407 27.3392C16.219 26.8516 15.8027 26.439 15.4432 25.9702C14.8945 25.2575 14.9323 24.4511 15.5568 23.8135C16.6353 22.7071 17.7328 21.6194 18.8681 20.5317C19.5304 19.8941 20.2873 19.8753 21.0441 20.4379C21.6307 20.8692 22.1605 21.6006 22.785 21.6756C23.3716 21.7507 24.0149 21.0943 24.6772 20.8317C25.5287 20.4942 26.3991 20.1754 27.2695 19.9128C27.7047 19.7815 27.875 19.594 27.8939 19.1439C27.8939 18.6376 27.9696 18.1125 28.0264 17.6061C28.1399 16.6685 28.7265 16.1246 29.6726 16.1059C31.2242 16.0871 32.7947 16.0871 34.3463 16.1059C35.2546 16.1246 35.8412 16.6685 35.9547 17.5686C36.0493 18.2625 35.8979 19.1439 36.2574 19.6128C36.617 20.0816 37.5252 20.1003 38.1686 20.3629C39.0011 20.7005 39.8337 21.038 40.5906 21.4881C41.1015 21.7882 41.4232 21.7319 41.8205 21.3381C42.18 21.0005 42.5774 20.7005 42.9748 20.4004C43.6938 19.8753 44.4507 19.8753 45.094 20.4942C46.2294 21.5819 47.3457 22.6883 48.4432 23.8135C49.0487 24.4324 49.0677 25.22 48.5568 25.9139C48.3297 26.214 48.0837 26.4953 47.8566 26.7953C47.6485 27.0579 47.4214 27.3204 47.289 27.4892ZM43.9209 22.1445C43.3154 22.6321 42.672 23.1384 42.0287 23.6635C41.6124 24.0011 41.1772 24.0573 40.723 23.7573C39.039 22.6508 37.1846 21.9007 35.2167 21.4881C34.6112 21.3568 34.3463 21.0005 34.2896 20.4192C34.2328 19.819 34.1571 19.2002 34.1193 18.6001C34.1003 18.2062 33.9868 18.0187 33.5327 18.0187C32.5109 18.0562 31.508 18.0562 30.4862 18.0187C30.0321 18 29.9186 18.2062 29.8996 18.6001C29.8618 19.1814 29.7672 19.7628 29.7483 20.3441C29.7104 21.0005 29.4077 21.3756 28.7454 21.5069C26.8343 21.9007 25.0556 22.6321 23.4283 23.701C22.8607 24.0573 22.3876 24.0198 21.8956 23.5885C21.309 23.0821 20.6846 22.6133 20.1926 22.2195C19.2087 23.1947 18.2626 24.1323 17.2976 25.0888C17.7328 25.6139 18.2058 26.2327 18.7167 26.8141C19.133 27.2829 19.1519 27.7705 18.8113 28.2769C17.7139 29.9084 16.9948 31.7087 16.5785 33.6216C16.465 34.1654 16.1433 34.4842 15.5757 34.5405C14.762 34.6155 13.9484 34.728 13.1158 34.8031C13.1158 36.1721 13.1158 37.4848 13.1158 38.8163C13.9673 38.9101 14.762 39.0038 15.5568 39.0788C16.1623 39.1351 16.465 39.4539 16.5975 40.0353C16.9948 41.9294 17.7328 43.6922 18.8113 45.305C19.1709 45.8488 19.133 46.3364 18.6978 46.8428C18.1869 47.4241 17.7139 48.0242 17.2976 48.5493C18.2815 49.5433 19.2087 50.4809 20.1737 51.4374C20.7225 51.006 21.328 50.5372 21.8767 50.0496C22.3876 49.5995 22.8796 49.562 23.4662 49.9371C25.0745 50.9873 26.8343 51.7187 28.7265 52.0937C29.4077 52.225 29.7104 52.6188 29.7672 53.3127C29.805 54.0629 29.9186 54.7942 29.9943 55.5444C31.3756 55.5444 32.6812 55.5444 34.0625 55.5444C34.1382 54.7755 34.2517 54.0441 34.2896 53.294C34.3274 52.6188 34.6491 52.2063 35.3303 52.075C37.2225 51.6999 38.9822 50.9685 40.5906 49.9183C41.1772 49.5245 41.6691 49.5808 42.18 50.0309C42.7666 50.5372 43.3721 51.006 43.8263 51.3624C44.8291 50.3684 45.7563 49.4308 46.7213 48.4743C46.324 47.9867 45.8888 47.4241 45.3968 46.8803C44.9237 46.3552 44.8859 45.8488 45.2832 45.23C46.3429 43.6547 47.043 41.9294 47.4404 40.0728C47.5728 39.4352 47.9134 39.0976 48.5757 39.0413C49.3704 38.9663 50.1462 38.8726 50.9599 38.7975C50.9599 37.4285 50.9599 36.1346 50.9599 34.7843C50.1462 34.6905 49.3515 34.5968 48.5568 34.5405C47.9134 34.4842 47.5917 34.1654 47.4593 33.5466C47.0619 31.6712 46.3429 29.9272 45.2832 28.3331C44.9048 27.7518 44.9237 27.2642 45.3779 26.7391C45.8888 26.1577 46.3618 25.5576 46.8159 25.0138C45.8131 24.0198 44.867 23.1009 43.9209 22.1445Z" fill="#DAA666"/>
<path d="M47.289 27.4892C47.9513 29.177 48.5378 30.7148 49.1623 32.2526C49.238 32.4401 49.4839 32.6277 49.6732 32.6652C50.2787 32.7777 50.8842 32.7964 51.4897 32.8902C52.3979 33.0402 52.8899 33.5466 52.9088 34.4467C52.9467 36.022 52.9467 37.5786 52.9088 39.1539C52.8899 40.054 52.379 40.5604 51.4707 40.7104C50.7328 40.8229 49.8056 40.6916 49.2947 41.1042C48.8217 41.4793 48.8217 42.417 48.5378 43.0921C48.1216 44.0673 47.6485 45.0049 47.1755 46.0176C47.5728 46.5052 48.0269 47.0303 48.4622 47.5742C49.1055 48.3806 49.0677 49.1682 48.3486 49.8996C47.3079 50.9498 46.2672 52 45.1886 53.0314C44.4318 53.7628 43.5803 53.8753 42.8802 53.1252C41.7638 51.9062 40.742 51.8875 39.3796 52.7501C38.5659 53.2565 37.5252 53.4252 36.617 53.8003C36.3899 53.8941 36.1628 54.1754 36.125 54.4004C36.0115 54.9443 36.0115 55.5069 35.9358 56.0695C35.8222 56.9509 35.2357 57.5135 34.3274 57.5322C32.7758 57.551 31.2053 57.551 29.6537 57.5322C28.7076 57.5135 28.121 56.9509 28.0074 56.032C27.9318 55.3381 28.0642 54.4754 27.7047 54.0066C27.3641 53.5565 26.4558 53.5565 25.8314 53.3127C24.9988 52.9752 24.1663 52.6376 23.4094 52.1875C22.8796 51.8687 22.539 51.925 22.1227 52.3375C21.7632 52.6751 21.3658 52.9752 20.9685 53.2752C20.2683 53.7816 19.5304 53.7628 18.906 53.1814C17.7517 52.075 16.6164 50.9498 15.5 49.8058C14.8945 49.187 14.9134 48.3993 15.4432 47.7054C15.6703 47.4054 15.9163 47.1241 16.1623 46.824C16.3893 46.5615 16.5975 46.2802 16.711 46.1489C16.0676 44.4798 15.4621 42.9045 14.8377 41.348C14.762 41.1792 14.5539 40.9917 14.3647 40.9729C13.7592 40.8604 13.1537 40.8417 12.5482 40.7479C11.6399 40.6166 11.1101 40.1103 11.0912 39.2101C11.0533 37.6161 11.0533 36.022 11.0912 34.4467C11.1101 33.5841 11.621 33.0777 12.4914 32.9465C13.0969 32.8527 13.7213 32.8339 14.3079 32.7214C14.516 32.6839 14.762 32.4589 14.8566 32.2526C15.4621 30.8648 16.0676 29.4771 16.6164 28.0518C16.6921 27.8455 16.6732 27.5267 16.5407 27.3392C16.219 26.8516 15.8027 26.439 15.4432 25.9702C14.8945 25.2575 14.9323 24.4511 15.5568 23.8135C16.6353 22.7071 17.7328 21.6194 18.8681 20.5317C19.5304 19.8941 20.2873 19.8753 21.0441 20.4379C21.6307 20.8692 22.1605 21.6006 22.785 21.6756C23.3716 21.7507 24.0149 21.0943 24.6772 20.8317C25.5287 20.4942 26.3991 20.1754 27.2695 19.9128C27.7047 19.7815 27.875 19.594 27.8939 19.1439C27.8939 18.6376 27.9696 18.1125 28.0264 17.6061C28.1399 16.6685 28.7265 16.1246 29.6726 16.1059C31.2242 16.0871 32.7947 16.0871 34.3463 16.1059C35.2546 16.1246 35.8412 16.6685 35.9547 17.5686C36.0493 18.2625 35.8979 19.1439 36.2574 19.6128C36.617 20.0816 37.5252 20.1003 38.1686 20.3629C39.0011 20.7005 39.8337 21.038 40.5906 21.4881C41.1015 21.7882 41.4232 21.7319 41.8205 21.3381C42.18 21.0005 42.5774 20.7005 42.9748 20.4004C43.6938 19.8753 44.4507 19.8753 45.094 20.4942C46.2294 21.5819 47.3457 22.6883 48.4432 23.8135C49.0487 24.4324 49.0677 25.22 48.5568 25.9139C48.3297 26.214 48.0837 26.4953 47.8566 26.7953C47.6485 27.0579 47.4214 27.3204 47.289 27.4892ZM43.9209 22.1445C43.3154 22.6321 42.672 23.1384 42.0287 23.6635C41.6124 24.0011 41.1772 24.0573 40.723 23.7573C39.039 22.6508 37.1846 21.9007 35.2167 21.4881C34.6112 21.3568 34.3463 21.0005 34.2896 20.4192C34.2328 19.819 34.1571 19.2002 34.1193 18.6001C34.1003 18.2062 33.9868 18.0187 33.5327 18.0187C32.5109 18.0562 31.508 18.0562 30.4862 18.0187C30.0321 18 29.9186 18.2062 29.8996 18.6001C29.8618 19.1814 29.7672 19.7628 29.7483 20.3441C29.7104 21.0005 29.4077 21.3756 28.7454 21.5069C26.8343 21.9007 25.0556 22.6321 23.4283 23.701C22.8607 24.0573 22.3876 24.0198 21.8956 23.5885C21.309 23.0821 20.6846 22.6133 20.1926 22.2195C19.2087 23.1947 18.2626 24.1323 17.2976 25.0888C17.7328 25.6139 18.2058 26.2327 18.7167 26.8141C19.133 27.2829 19.1519 27.7705 18.8113 28.2769C17.7139 29.9084 16.9948 31.7087 16.5785 33.6216C16.465 34.1654 16.1433 34.4842 15.5757 34.5405C14.762 34.6155 13.9484 34.728 13.1158 34.8031C13.1158 36.1721 13.1158 37.4848 13.1158 38.8163C13.9673 38.9101 14.762 39.0038 15.5568 39.0788C16.1623 39.1351 16.465 39.4539 16.5975 40.0353C16.9948 41.9294 17.7328 43.6922 18.8113 45.305C19.1709 45.8488 19.133 46.3364 18.6978 46.8428C18.1869 47.4241 17.7139 48.0242 17.2976 48.5493C18.2815 49.5433 19.2087 50.4809 20.1737 51.4374C20.7225 51.006 21.328 50.5372 21.8767 50.0496C22.3876 49.5995 22.8796 49.562 23.4662 49.9371C25.0745 50.9873 26.8343 51.7187 28.7265 52.0937C29.4077 52.225 29.7104 52.6188 29.7672 53.3127C29.805 54.0629 29.9186 54.7942 29.9943 55.5444C31.3756 55.5444 32.6812 55.5444 34.0625 55.5444C34.1382 54.7755 34.2517 54.0441 34.2896 53.294C34.3274 52.6188 34.6491 52.2063 35.3303 52.075C37.2225 51.6999 38.9822 50.9685 40.5906 49.9183C41.1772 49.5245 41.6691 49.5808 42.18 50.0309C42.7666 50.5372 43.3721 51.006 43.8263 51.3624C44.8291 50.3684 45.7563 49.4308 46.7213 48.4743C46.324 47.9867 45.8888 47.4241 45.3968 46.8803C44.9237 46.3552 44.8859 45.8488 45.2832 45.23C46.3429 43.6547 47.043 41.9294 47.4404 40.0728C47.5728 39.4352 47.9134 39.0976 48.5757 39.0413C49.3704 38.9663 50.1462 38.8726 50.9599 38.7975C50.9599 37.4285 50.9599 36.1346 50.9599 34.7843C50.1462 34.6905 49.3515 34.5968 48.5568 34.5405C47.9134 34.4842 47.5917 34.1654 47.4593 33.5466C47.0619 31.6712 46.3429 29.9272 45.2832 28.3331C44.9048 27.7518 44.9237 27.2642 45.3779 26.7391C45.8888 26.1577 46.3618 25.5576 46.8159 25.0138C45.8131 24.0198 44.867 23.1009 43.9209 22.1445Z" stroke="#DAA666" stroke-width="0.6" mask="url(#path-1-outside-1_56_594)"/>
<path d="M4.68867 57.7787L4.68855 57.7791C4.57032 58.199 4.38707 58.5197 4.13603 58.7111C3.87845 58.9074 3.56804 58.9535 3.23541 58.858C2.89651 58.7633 2.65182 58.5672 2.52969 58.2688C2.41076 57.9783 2.41755 57.6134 2.52564 57.1947L2.52579 57.1941L4.00171 51.5681L4.00247 51.5652L4.0025 51.5652C4.09723 51.2313 4.29522 50.9718 4.56292 50.8213C4.83044 50.671 5.15544 50.6365 5.49179 50.73C6.40947 50.9738 7.33184 51.2222 8.25391 51.4706L8.25405 51.4707C9.17654 51.7191 10.0987 51.9676 11.0162 52.2113L11.0204 52.2124L11.0204 52.2125C11.0694 52.227 11.122 52.2411 11.1765 52.2557C11.3115 52.2917 11.4576 52.3308 11.5869 52.3878L11.591 52.3896L11.591 52.3897C11.862 52.519 12.0866 52.6917 12.2138 52.9242C12.3439 53.162 12.3605 53.441 12.2551 53.7543L12.2546 53.7558C12.1511 54.0533 11.9799 54.2838 11.7422 54.4184C11.504 54.5533 11.218 54.5811 10.906 54.509L10.9037 54.5085L10.9037 54.5085C9.84248 54.2455 8.80042 53.9638 7.76011 53.6827L7.75961 53.6825L7.75162 53.6804L7.75169 53.6801C7.68276 53.6574 7.61316 53.6421 7.53918 53.6287C7.85927 53.9949 8.17285 54.3636 8.48562 54.7313C9.27001 55.6535 10.0492 56.5697 10.9129 57.4257C22.322 68.7331 40.735 69.051 52.5403 58.1551C52.6393 58.0572 52.7564 57.9605 52.8671 57.8691L52.8701 57.8666L52.8713 57.8656C53.1455 57.6442 53.4416 57.519 53.7339 57.5135C54.0295 57.508 54.3053 57.6255 54.5306 57.8595L54.5329 57.8619L54.5329 57.8619C54.7542 58.1021 54.8688 58.3849 54.849 58.6792C54.8293 58.9723 54.6779 59.2544 54.411 59.4988C54.4108 59.499 54.4105 59.4993 54.4103 59.4995L54.3091 59.3888C53.59 60.0639 52.8521 60.7203 52.0763 61.3391L4.68867 57.7787ZM4.68867 57.7787C4.96792 56.7754 5.24719 55.7561 5.55612 54.6033M4.68867 57.7787L5.55612 54.6033M5.55612 54.6033C5.59167 54.6498 5.62513 54.6934 5.65748 54.7355L5.67517 54.7586C5.75113 54.8575 5.82165 54.9493 5.90028 55.0532L5.55612 54.6033Z" fill="#DAA666" stroke="#DAA666" stroke-width="0.3"/>
<path d="M26.9256 0.351898L26.9256 0.351876L26.9234 0.353847C26.4539 0.774827 26.4704 1.45003 26.8888 1.94865C27.0083 2.09648 27.1414 2.22465 27.2692 2.34778C27.3106 2.3876 27.3514 2.4269 27.391 2.46616L27.3914 2.46655C28.0468 3.11617 28.7185 3.78187 29.4778 4.52013C29.3993 4.53046 29.3573 4.53505 29.3131 4.53505V4.53446L29.2998 4.53564C22.3257 5.15715 16.1263 7.68187 10.916 12.2992L10.916 12.2992C2.62976 19.6452 -0.945324 28.8999 0.0237167 39.8607C0.118246 40.9691 0.342981 42.0528 0.566855 43.1322C0.614011 43.3596 0.661129 43.5868 0.706984 43.814C0.770334 44.1675 0.946779 44.4398 1.19837 44.6033C1.44919 44.7663 1.76083 44.812 2.07852 44.7389C2.39302 44.6739 2.63813 44.4936 2.78292 44.2342C2.92659 43.9768 2.96534 43.6533 2.89378 43.3071C2.87431 43.2013 2.85018 43.0961 2.82689 42.9945L2.82653 42.9929C2.80275 42.8892 2.77986 42.7893 2.76164 42.69L2.76171 42.69L2.76071 42.6853C1.91321 38.7656 1.81947 34.8108 2.60976 30.8945L2.60982 30.8942C5.05757 18.6339 14.3573 9.49087 26.6917 7.13913C27.2559 7.03432 27.8138 6.96671 28.377 6.89845C28.6657 6.86347 28.9557 6.82832 29.2487 6.78791C28.9621 7.07096 28.6744 7.35071 28.3871 7.62996C27.912 8.09187 27.4382 8.55243 26.9734 9.02436L26.9715 9.02633C26.6376 9.37793 26.5196 9.82213 26.6077 10.2041C26.6969 10.5908 26.9958 10.9007 27.4566 10.9659L27.4566 10.966L27.4603 10.9664C27.6536 10.989 27.8778 10.9437 28.0802 10.866C28.2829 10.7882 28.4813 10.671 28.6224 10.5316C29.8064 9.42075 30.9642 8.27066 32.1158 7.12667C32.346 6.89805 32.5759 6.66967 32.8057 6.44189C33.0879 6.1622 33.2475 5.85892 33.2475 5.53833C33.2475 5.21774 33.0879 4.91446 32.8057 4.63477C32.2945 4.12814 31.7834 3.62624 31.2725 3.12463L31.2723 3.12437C30.7614 2.62276 30.2509 2.12144 29.7403 1.61547L29.7404 1.61544L29.7379 1.61315C29.5529 1.43772 29.3748 1.25894 29.196 1.07938C29.1664 1.04966 29.1367 1.01992 29.107 0.990167C28.8988 0.781412 28.6883 0.572755 28.4676 0.373055L28.3676 0.483566L28.4676 0.373055C28.2299 0.157942 27.969 0.039385 27.6968 0.0365743C27.4247 0.0337648 27.1635 0.14683 26.9256 0.351898Z" fill="#DAA666" stroke="#DAA666" stroke-width="0.3"/>
<path d="M44.1632 9.17351L44.1636 9.1737C59.2067 15.7419 66.1342 33.1687 59.6218 48.1506C59.6216 48.1512 59.6213 48.1518 59.6211 48.1524L59.3575 48.7183C59.3198 48.5788 59.2821 48.439 59.2444 48.2989C59.0095 47.427 58.7719 46.5452 58.5214 45.6764L58.5211 45.6753C58.419 45.3311 58.2363 45.0599 57.9939 44.8934C57.7497 44.7257 57.4552 44.6717 57.1503 44.747C56.8279 44.8218 56.5816 45.007 56.4416 45.2789C56.3051 45.5442 56.2773 45.8765 56.3543 46.2415C56.3566 46.3174 56.3739 46.3823 56.3883 46.4363C56.3912 46.447 56.3939 46.4574 56.3964 46.4673L56.3971 46.4698C56.8891 48.2891 57.3811 50.0896 57.8731 51.8899L57.8738 51.8923C58.0006 52.3274 58.1817 52.6423 58.4778 52.8047C58.7726 52.9663 59.1415 52.955 59.588 52.8395L59.5899 52.839C60.4503 52.6047 61.3155 52.3751 62.1813 52.1454L62.1831 52.1449C63.0477 51.9154 63.913 51.6858 64.7735 51.4515C65.294 51.3176 65.6867 51.1303 65.9238 50.8739C66.1714 50.6062 66.2359 50.2779 66.1278 49.9136C66.021 49.5539 65.8035 49.3087 65.4568 49.2054C65.1256 49.1066 64.6955 49.1434 64.1674 49.286C63.5307 49.4467 62.8997 49.6147 62.2595 49.7851C61.9261 49.8739 61.5901 49.9633 61.2496 50.0528C61.2836 49.9836 61.3138 49.9151 61.3427 49.8497L61.3434 49.8481C61.3767 49.7725 61.4083 49.701 61.4441 49.63L61.4443 49.6301L61.4471 49.6237C63.9173 44.1059 64.8879 38.3578 64.0511 32.3638C62.6636 22.3046 57.5667 14.5585 48.9396 9.13444C47.9169 8.48689 46.8067 7.9637 45.7083 7.44612C45.3337 7.26959 44.9605 7.09372 44.5926 6.91379C44.2967 6.76724 44.0078 6.74593 43.7482 6.84207C43.4917 6.93705 43.2831 7.13944 43.129 7.40424L43.129 7.40423L43.128 7.40591C42.8135 7.96251 43.0725 8.61116 43.6404 8.92384C43.8165 9.02081 43.9919 9.09806 44.1606 9.17237L44.1632 9.17351Z" fill="#DAA666" stroke="#DAA666" stroke-width="0.3"/>
<path d="M22.5187 36.754V36.7534C22.5187 31.55 26.839 27.321 32.0935 27.3579C37.2726 27.3949 41.5191 31.6423 41.5191 36.7722C41.5191 42.0143 37.2732 46.224 32 46.224C26.7464 46.224 22.5001 41.9775 22.5187 36.754ZM43.7681 36.6961C43.7296 30.2927 38.401 25.0694 31.9798 25.1263L43.7681 36.6961ZM31.9797 25.1263C25.389 25.1833 20.1934 30.4257 20.2508 36.9608L31.9797 25.1263Z" fill="#DAA666" stroke="#DAA666" stroke-width="0.3"/>
</g>
<defs>
<clipPath id="clip0_56_594">
<rect width="66" height="68" fill="white" transform="translate(0.0217896 0.203125)"/>
</clipPath>
</defs>
</svg>
