<svg width="68" height="68" viewBox="0 0 68 68" fill="none" xmlns="http://www.w3.org/2000/svg">
<g clip-path="url(#clip0_56_587)">
<path d="M60.7684 49.9053C60.7684 50.2113 60.7684 50.4633 60.7684 50.6973C60.7684 55.7016 60.7684 60.6879 60.7684 65.6922C60.7684 66.8443 60.4257 67.1863 59.3072 67.1863C53.0654 67.1863 46.8416 67.1863 40.5999 67.1863C39.5175 67.1863 39.1567 66.8263 39.1567 65.7102C39.1567 62.6861 39.1567 59.6799 39.1567 56.6557C39.1567 56.4397 39.1567 56.2237 39.1567 55.8817C34.0694 66.0523 21.658 69.9045 11.8624 65.1342C2.8244 60.7419 -1.7036 50.5533 1.07453 40.8688C3.97895 30.7162 15.0374 23.6957 26.1499 26.7919C26.1499 24.7938 26.1499 22.7957 26.1499 20.7076C25.9515 20.7076 25.735 20.7076 25.5366 20.7076C24.0212 20.7076 22.5239 20.7076 21.0086 20.7076C20.4674 20.7076 20.0344 20.5455 19.7999 20.0235C19.5654 19.4835 19.7999 19.0695 20.1787 18.6914C23.6604 15.2172 27.1421 11.725 30.6419 8.23281C31.3274 7.54877 31.8505 7.53077 32.5541 8.23281C36.0358 11.707 39.4994 15.1632 42.9631 18.6374C43.36 19.0335 43.6306 19.4475 43.396 20.0055C43.1615 20.5635 42.6925 20.6896 42.1332 20.6896C40.4555 20.6716 38.7598 20.6896 37.046 20.6896C37.046 23.0297 37.046 25.3158 37.046 27.746C37.2625 27.53 37.4429 27.386 37.6052 27.2239C40.2932 24.5418 42.9811 21.8416 45.6691 19.1595C46.4628 18.3674 46.8236 18.3494 47.7617 19.0515C47.7617 17.0713 47.7617 15.1452 47.7617 13.1291C46.8056 13.1291 45.8495 13.1111 44.8933 13.1291C44.298 13.1471 43.811 13.0211 43.5764 12.4091C43.36 11.833 43.6486 11.437 44.0455 11.041C47.4911 7.60277 50.9187 4.16457 54.3643 0.72636C55.158 -0.0656876 55.6271 -0.0656876 56.4208 0.72636C59.8484 4.14656 63.2579 7.56677 66.6855 10.987C67.0824 11.383 67.4432 11.797 67.1906 12.4091C66.938 13.0391 66.4149 13.1291 65.8015 13.1291C64.8815 13.1111 63.9615 13.1291 62.9512 13.1291C62.9512 13.3991 62.9512 13.6331 62.9512 13.8671C62.9512 23.6957 62.9512 33.5423 62.9332 43.3709C62.9332 43.8389 63.0775 44.163 63.4022 44.487C64.5387 45.585 65.6392 46.7191 66.7576 47.8172C67.1545 48.2132 67.4071 48.6272 67.1726 49.2033C66.92 49.7613 66.451 49.8693 65.8917 49.8693C64.214 49.9053 62.5544 49.9053 60.7684 49.9053ZM38.6876 29.3661C39.0304 29.3661 39.3371 29.3661 39.6437 29.3661C41.0689 29.3661 41.3215 29.6361 41.3215 31.0582C41.3215 42.1108 41.3215 53.1455 41.3215 64.1982C41.3215 64.4502 41.3215 64.7202 41.3215 64.9722C44.2439 64.9722 47.0942 64.9722 49.9265 64.9722C49.9265 59.9319 49.9265 54.9456 49.9265 49.8873C48.2668 49.8873 46.6252 49.8873 44.9835 49.8873C44.3882 49.8873 43.847 49.8513 43.5764 49.2213C43.3058 48.5732 43.6666 48.1592 44.0816 47.7452C46.6071 45.225 49.1327 42.6869 51.6763 40.1667C52.001 39.8427 52.1273 39.5187 52.1273 39.0507C52.1093 36.2605 52.1093 33.4703 52.1273 30.6802C52.1273 29.7441 52.5062 29.3661 53.4262 29.3481C53.8591 29.3481 54.3101 29.3481 54.707 29.3481C52.001 26.6479 49.3311 23.9657 46.6973 21.3196C44.0815 23.9838 41.4117 26.6479 38.6876 29.3661ZM47.3468 11.005C47.7617 11.005 48.1586 11.005 48.5554 11.005C49.6198 11.005 49.9625 11.365 49.9806 12.4271C49.9806 15.1812 49.9986 17.9174 49.9806 20.6716C49.9806 21.1576 50.1069 21.4996 50.4496 21.8596C52.9932 24.3798 55.5188 26.9179 58.0444 29.4381C58.4413 29.8341 58.784 30.2481 58.5315 30.8602C58.2789 31.4902 57.7377 31.5622 57.1424 31.5622C56.2043 31.5442 55.2663 31.5622 54.3462 31.5622C54.3462 33.5783 54.3462 35.5044 54.3462 37.4486C55.3925 36.7645 55.6631 36.8005 56.5651 37.7006C57.7738 38.9066 58.9825 40.1127 60.1911 41.3368C60.3535 41.4988 60.5339 41.6428 60.7865 41.8948C60.7865 41.5168 60.7865 41.2648 60.7865 41.0308C60.7865 36.0265 60.7865 31.0402 60.7865 26.0359C60.7865 21.5536 60.7865 17.0713 60.7865 12.6071C60.7865 11.383 61.0931 11.077 62.3559 11.059C62.6987 11.059 63.0595 11.059 63.3661 11.059C60.6782 8.35882 57.9903 5.69466 55.3565 3.0485C52.7407 5.60465 50.0708 8.28681 47.3468 11.005ZM2.42752 46.6111C2.40948 56.7457 10.6176 65.0082 20.6839 65.0262C30.8764 65.0442 39.1386 56.8357 39.1567 46.6651C39.1747 36.5665 30.9485 28.304 20.8462 28.286C10.6898 28.286 2.44556 36.4765 2.42752 46.6111ZM58.6217 65.0082C58.6217 64.7202 58.6217 64.4682 58.6217 64.2342C58.6217 60.2019 58.6217 56.1877 58.6217 52.1554C58.6217 51.0934 58.6036 50.0493 58.6217 48.9872C58.6397 48.1772 59.0366 47.7812 59.8303 47.7632C60.6602 47.7452 61.49 47.7632 62.3198 47.7632C62.6806 47.7632 63.0595 47.7632 63.294 47.7632C60.6241 45.081 57.9362 42.3989 55.4106 39.8787C52.7948 42.4889 50.1249 45.153 47.5091 47.7632C48.4472 47.7632 49.5296 47.7632 50.612 47.7632C51.8026 47.7632 52.1273 48.0872 52.1273 49.2753C52.1273 54.2616 52.1273 59.2659 52.1273 64.2522C52.1273 64.4862 52.1273 64.7382 52.1273 65.0082C54.3101 65.0082 56.4208 65.0082 58.6217 65.0082ZM34.8451 31.6522C34.8451 31.3462 34.8451 31.1302 34.8451 30.9142C34.8451 27.53 34.8451 24.1638 34.8451 20.7796C34.8451 18.6194 34.8993 18.5474 37.064 18.5474C37.93 18.5474 38.7778 18.5474 39.4994 18.5474C36.8295 15.8833 34.1596 13.2011 31.5619 10.5909C28.9642 13.1831 26.2943 15.8473 23.6063 18.5474C24.4903 18.5474 25.4103 18.5474 26.3123 18.5474C28.2245 18.5474 28.3508 18.6914 28.3508 20.5635C28.3508 22.7057 28.3688 24.8478 28.3328 26.9719C28.3328 27.422 28.4771 27.62 28.874 27.818C30.1728 28.484 31.4537 29.2041 32.6804 29.9781C33.438 30.4461 34.0694 31.0582 34.8451 31.6522ZM39.1747 37.3586C39.1747 36.3325 39.1747 35.3784 39.1747 34.4424C39.1747 33.4883 39.1747 32.5343 39.1747 31.5802C38.399 31.5802 37.7135 31.5802 37.0099 31.5802C37.0099 32.2462 36.9919 32.8403 37.0099 33.4523C37.028 33.7403 37.028 34.0644 37.1542 34.2804C37.7856 35.3064 38.4531 36.2785 39.1747 37.3586Z" fill="#DAA666"/>
<path d="M4.59232 2.41838C4.59232 2.07636 4.59232 1.71634 4.59232 1.32031C5.31391 1.32031 5.99943 1.32031 6.73906 1.32031C6.73906 1.68033 6.73906 2.04036 6.73906 2.41838C9.39092 3.19242 10.8702 4.92053 11.0867 7.7287C10.347 7.7287 9.64348 7.7287 8.95796 7.7287C8.57913 5.98259 8.00185 5.19054 6.77514 4.81252C6.77514 6.90065 6.77514 8.98877 6.77514 11.0589C9.76976 12.265 11.0867 13.9391 11.0506 16.4952C11.0325 18.9434 9.62544 20.6535 6.73906 21.7515C6.73906 22.0936 6.73906 22.4536 6.73906 22.8496C6.01747 22.8496 5.33195 22.8496 4.59232 22.8496C4.59232 22.4896 4.59232 22.1296 4.59232 21.7335C3.05893 21.3195 1.83222 20.5275 1.02043 19.1594C0.533354 18.3313 0.262756 17.4493 0.262756 16.4412C0.98435 16.4412 1.66986 16.4412 2.39146 16.4412C2.53578 17.8093 3.14913 18.8354 4.5382 19.4114C4.5382 17.2513 4.5382 15.1811 4.5382 13.111C1.56163 11.9049 0.244716 10.2308 0.262756 7.67469C0.298836 5.20855 1.70594 3.49844 4.59232 2.41838ZM4.55624 4.79452C3.20325 5.28055 2.37342 6.50462 2.42754 7.89071C2.48166 9.20479 3.36561 10.3929 4.55624 10.6989C4.55624 8.73676 4.55624 6.79264 4.55624 4.79452ZM6.7571 19.3574C8.12813 18.9434 9.03012 17.5393 8.8858 16.0992C8.75953 14.8031 7.78537 13.615 6.7571 13.507C6.7571 15.4512 6.7571 17.3773 6.7571 19.3574Z" fill="#DAA666"/>
<path d="M17.6171 1.32031C18.2846 1.32031 18.952 1.32031 19.6195 1.32031C19.6375 1.35631 19.6917 1.39232 19.6917 1.41032C19.6015 2.14836 19.836 2.65239 20.5576 3.06642C21.4415 3.57045 21.8204 4.4885 21.8745 5.56857C21.1709 5.56857 20.4854 5.56857 19.7819 5.56857C19.7458 5.46056 19.6917 5.33455 19.6375 5.22655C19.385 4.68651 18.952 4.4345 18.3748 4.57851C17.8336 4.72252 17.5449 5.10054 17.563 5.67657C17.581 6.23461 17.9959 6.63063 18.6273 6.70264C18.916 6.73864 19.2046 6.75664 19.4932 6.82864C20.756 7.18866 21.5317 8.03472 21.8023 9.29479C22.0549 10.5549 21.6941 11.6709 20.6658 12.409C20.0164 12.877 19.4571 13.273 19.7458 14.2271C18.9881 14.2271 18.3206 14.2271 17.6532 14.2271C17.6351 14.2091 17.581 14.1731 17.581 14.1371C17.6712 13.345 17.4006 12.877 16.661 12.445C15.8131 11.9409 15.4523 11.0409 15.3982 9.97883C16.1017 9.97883 16.7872 9.97883 17.4908 9.97883C17.5449 10.1228 17.599 10.2849 17.6892 10.4469C17.9598 10.9149 18.3748 11.1129 18.8799 10.9689C19.385 10.8429 19.6917 10.4649 19.6917 9.94283C19.6917 9.3848 19.367 9.00677 18.8258 8.88077C18.501 8.80876 18.1583 8.82676 17.8336 8.73676C16.5347 8.39474 15.7229 7.54869 15.4523 6.25261C15.1817 4.99253 15.6147 3.94847 16.5888 3.12042C17.4728 2.36437 17.4908 2.36438 17.6171 1.32031Z" fill="#DAA666"/>
<path d="M20.8102 62.8663C11.8444 62.8663 4.59235 55.5938 4.59235 46.6293C4.59235 37.7368 11.8444 30.4643 20.72 30.4463C29.7219 30.4283 37.01 37.7008 37.01 46.6833C37.01 55.6118 29.7219 62.8663 20.8102 62.8663ZM20.8463 32.6245C12.9628 32.6605 6.73909 38.9428 6.75713 46.8273C6.77517 54.4778 13.1613 60.7421 20.9004 60.7061C28.5853 60.6701 34.8993 54.3157 34.8452 46.6293C34.8091 38.8888 28.5132 32.5884 20.8463 32.6245Z" fill="#DAA666"/>
<path d="M25.1036 43.3889C24.4001 43.3889 23.7326 43.3889 23.011 43.3889C22.9749 43.2448 22.9569 43.1008 22.9208 42.9568C22.6141 41.8048 21.6039 41.1027 20.5035 41.2647C19.385 41.4267 18.5732 42.4348 18.6634 43.5689C18.7356 44.6849 19.6376 45.531 20.8282 45.567C22.1271 45.603 23.2455 46.089 24.0934 47.0791C26.0237 49.3292 25.1938 52.7314 22.4518 53.8655C22.0369 54.0455 21.8565 54.2255 21.8925 54.6935C21.9467 55.2336 21.9106 55.7736 21.9106 56.3496C21.189 56.3496 20.5035 56.3496 19.7458 56.3496C19.7458 55.7736 19.7278 55.2336 19.7458 54.6755C19.7638 54.2615 19.6376 54.0635 19.2226 53.9015C17.563 53.2534 16.4986 51.6873 16.5347 49.9592C17.2202 49.9592 17.9057 49.9592 18.6093 49.9592C18.6634 50.1573 18.6995 50.3373 18.7536 50.5353C19.0783 51.5793 20.1066 52.2274 21.1529 52.0474C22.2173 51.8674 22.993 50.9313 22.9749 49.8512C22.9388 48.7532 22.091 47.8171 20.9725 47.7631C19.9984 47.7091 19.0964 47.5111 18.3206 46.9351C17.0037 45.963 16.3723 44.6309 16.5347 43.0108C16.6971 41.3367 17.5991 40.1127 19.1685 39.4646C19.6195 39.2846 19.7999 39.0686 19.7458 38.5826C19.7097 38.0605 19.7278 37.5565 19.7278 36.9805C20.4313 36.9805 21.1168 36.9805 21.8925 36.9805C21.8925 37.5385 21.9106 38.1145 21.8925 38.6906C21.8745 39.0866 22.0008 39.2666 22.3796 39.4106C24.0393 40.0767 25.0675 41.5707 25.1036 43.3889Z" fill="#DAA666"/>
</g>
<defs>
<clipPath id="clip0_56_587">
<rect width="67" height="67" fill="white" transform="translate(0.262756 0.186523)"/>
</clipPath>
</defs>
</svg>
